<svg width="43" height="43" viewBox="0 0 43 43" fill="none" xmlns="http://www.w3.org/2000/svg">
<path fill-rule="evenodd" clip-rule="evenodd" d="M21.8033 20.4258L21.4187 1.60153L20.4189 1.5811L20.8035 20.4054L1.97985 20.0208L2.00027 21.0206L20.8239 21.4052L21.2289 41.2289L22.2287 41.2493L21.8237 21.4256L41.6481 21.8306L41.6277 20.8309L21.8033 20.4258Z" fill="black"/>
<path d="M21.4187 1.60153L22.4185 1.5811L22.3989 0.621343L21.4391 0.601736L21.4187 1.60153ZM21.8033 20.4258L20.8035 20.4463L20.8231 21.406L21.7828 21.4256L21.8033 20.4258ZM20.4189 1.5811L20.4393 0.58131L19.3978 0.560032L19.4191 1.60153L20.4189 1.5811ZM20.8035 20.4054L20.7831 21.4052L21.8246 21.4265L21.8033 20.385L20.8035 20.4054ZM1.97985 20.0208L2.00027 19.021L0.958777 18.9998L0.980055 20.0413L1.97985 20.0208ZM2.00027 21.0206L1.00048 21.0411L1.02009 22.0008L1.97985 22.0204L2.00027 21.0206ZM20.8239 21.4052L21.8237 21.3848L21.8041 20.425L20.8443 20.4054L20.8239 21.4052ZM21.2289 41.2289L20.2291 41.2493L20.2487 42.2091L21.2085 42.2287L21.2289 41.2289ZM22.2287 41.2493L22.2083 42.2491L23.2498 42.2704L23.2285 41.2289L22.2287 41.2493ZM21.8237 21.4256L21.8441 20.4258L20.8026 20.4046L20.8239 21.4461L21.8237 21.4256ZM41.6481 21.8306L41.6277 22.8304L42.6692 22.8517L42.6479 21.8102L41.6481 21.8306ZM41.6277 20.8309L42.6274 20.8104L42.6078 19.8507L41.6481 19.8311L41.6277 20.8309ZM20.4189 1.62195L20.8035 20.4463L22.8031 20.4054L22.4185 1.5811L20.4189 1.62195ZM20.3985 2.58089L21.3983 2.60132L21.4391 0.601736L20.4393 0.58131L20.3985 2.58089ZM21.8033 20.385L21.4187 1.56068L19.4191 1.60153L19.8037 20.4258L21.8033 20.385ZM1.95942 21.0206L20.7831 21.4052L20.8239 19.4056L2.00027 19.021L1.95942 21.0206ZM3.00006 21.0002L2.97964 20.0004L0.980055 20.0413L1.00048 21.0411L3.00006 21.0002ZM20.8443 20.4054L2.0207 20.0208L1.97985 22.0204L20.8035 22.405L20.8443 20.4054ZM22.2287 41.2085L21.8237 21.3848L19.8241 21.4256L20.2291 41.2493L22.2287 41.2085ZM22.2491 40.2495L21.2493 40.2291L21.2085 42.2287L22.2083 42.2491L22.2491 40.2495ZM20.8239 21.4461L21.2289 41.2698L23.2285 41.2289L22.8235 21.4052L20.8239 21.4461ZM41.6685 20.8309L21.8441 20.4258L21.8033 22.4254L41.6277 22.8304L41.6685 20.8309ZM40.6279 20.8513L40.6483 21.8511L42.6479 21.8102L42.6274 20.8104L40.6279 20.8513ZM21.7828 21.4256L41.6072 21.8306L41.6481 19.8311L21.8237 19.426L21.7828 21.4256Z" fill="black"/>
</svg>
