<svg width="28" height="26" viewBox="0 0 28 26" fill="none" xmlns="http://www.w3.org/2000/svg">
<path fill-rule="evenodd" clip-rule="evenodd" d="M15.6569 15.6569C12.5327 18.781 7.46734 18.781 4.34315 15.6569C1.21895 12.5327 1.21895 7.46734 4.34315 4.34315C7.46734 1.21895 12.5327 1.21895 15.6569 4.34315C18.781 7.46734 18.781 12.5327 15.6569 15.6569ZM17.0711 17.0711C13.1658 20.9763 6.83418 20.9763 2.92893 17.0711C-0.976311 13.1658 -0.97631 6.83417 2.92893 2.92893C6.83418 -0.976311 13.1658 -0.976311 17.0711 2.92893C20.9763 6.83417 20.9763 13.1658 17.0711 17.0711ZM17.1504 16.9911L25.6357 25.4764L27.0499 24.0622L18.5646 15.5769L17.1504 16.9911Z" fill="black"/>
</svg>
