<svg width="25" height="24" viewBox="0 0 25 24" fill="none" xmlns="http://www.w3.org/2000/svg">
<path fill-rule="evenodd" clip-rule="evenodd" d="M13.1379 11.7236L22.1544 2.70711L21.4473 2L12.4308 11.0165L3.41443 2.00018L2.70733 2.70728L11.7237 11.7236L2 21.4473L2.70711 22.1544L12.4308 12.4307L22.1546 22.1546L22.8617 21.4475L13.1379 11.7236Z" fill="black"/>
<path d="M22.1544 2.70711L22.8615 3.41421L23.5686 2.70711L22.8615 2L22.1544 2.70711ZM13.1379 11.7236L12.4308 11.0165L11.7237 11.7236L12.4308 12.4307L13.1379 11.7236ZM21.4473 2L22.1544 1.29289L21.4473 0.585787L20.7402 1.29289L21.4473 2ZM12.4308 11.0165L11.7237 11.7236L12.4308 12.4307L13.1379 11.7236L12.4308 11.0165ZM3.41443 2.00018L4.12154 1.29307L3.41443 0.585962L2.70733 1.29307L3.41443 2.00018ZM2.70733 2.70728L2.00022 2.00018L1.29311 2.70728L2.00022 3.41439L2.70733 2.70728ZM11.7237 11.7236L12.4308 12.4307L13.1379 11.7236L12.4308 11.0165L11.7237 11.7236ZM2 21.4473L1.29289 20.7402L0.585787 21.4473L1.29289 22.1544L2 21.4473ZM2.70711 22.1544L2 22.8615L2.70711 23.5686L3.41421 22.8615L2.70711 22.1544ZM12.4308 12.4307L13.1379 11.7236L12.4308 11.0165L11.7237 11.7236L12.4308 12.4307ZM22.1546 22.1546L21.4475 22.8617L22.1546 23.5688L22.8617 22.8617L22.1546 22.1546ZM22.8617 21.4475L23.5688 22.1546L24.2759 21.4475L23.5688 20.7403L22.8617 21.4475ZM21.4473 2L12.4308 11.0165L13.845 12.4307L22.8615 3.41421L21.4473 2ZM20.7402 2.70711L21.4473 3.41421L22.8615 2L22.1544 1.29289L20.7402 2.70711ZM13.1379 11.7236L22.1544 2.70711L20.7402 1.29289L11.7237 10.3094L13.1379 11.7236ZM2.70733 2.70728L11.7237 11.7236L13.1379 10.3094L4.12154 1.29307L2.70733 2.70728ZM3.41443 3.41439L4.12154 2.70728L2.70733 1.29307L2.00022 2.00018L3.41443 3.41439ZM12.4308 11.0165L3.41443 2.00018L2.00022 3.41439L11.0166 12.4307L12.4308 11.0165ZM2.70711 22.1544L12.4308 12.4307L11.0166 11.0165L1.29289 20.7402L2.70711 22.1544ZM3.41421 21.4473L2.70711 20.7402L1.29289 22.1544L2 22.8615L3.41421 21.4473ZM11.7237 11.7236L2 21.4473L3.41421 22.8615L13.1379 13.1378L11.7237 11.7236ZM22.8617 21.4475L13.1379 11.7236L11.7237 13.1378L21.4475 22.8617L22.8617 21.4475ZM22.1546 20.7403L21.4475 21.4474L22.8617 22.8617L23.5688 22.1546L22.1546 20.7403ZM12.4308 12.4307L22.1546 22.1546L23.5688 20.7403L13.845 11.0165L12.4308 12.4307Z" fill="black"/>
</svg>
